# ProBuilder 5.0.7
# https://unity3d.com/unity/features/worldbuilding/probuilder
# 1/11/2024 6:31:31 PM

mtllib ./validDoor.mtl
o validDoor

g validDoor
v 0 397 0
v 14 397 -10008
v -9978 397 -9995
v -10020 397 -20
v -6978 397 -15
v -6991 397 -6981
v -2973 397 -6974
v -2969 397 -27
v 0 0 0
v -2969 0 -27
v -2973 0 -6974
v -6991 0 -6981
v -6978 0 -15
v -10020 0 -20
v -9978 0 -9995
v 14 0 -10008
v 13 2 -10004
v -2969 0 -9992.5
v -2973 0 -10001.5
v -6991 0 -10008.5
v -6978 0 -4914.5
v -10020 0 -4919.5
v -6978 0 -9994.5
v -10020 0 -9999.5

vt 0 0
vt -14 -10008
vt 9978 -9995
vt 10020 -20
vt 6978 -15
vt 6991 -6981
vt 2973 -6974
vt 2969 -27
vt -2969.123 0
vt 0 397
vt -2969.123 397
vt -28.70951 0
vt -6975.71 0
vt -28.70951 397
vt -6975.71 397
vt 6994.035 0
vt 28.02235 0
vt 6994.035 397
vt 28.02235 397
vt -6978.015 0
vt -10020.02 0
vt -6978.015 397
vt -10020.02 397
vt 22.18928 0
vt -9952.899 0
vt 22.18928 397
vt -9952.899 397
vt 9964.987 0
vt -27.02079 0
vt 9964.987 397
vt -27.02079 397
vt -2985.145 0
vt -7003.151 0
vt -2985.145 397
vt -7003.151 397
vt 10008.01 0
vt 10008.01 397
vt -2969 -27
vt 13 -10004
vt -2969 -9992.5
vt -2973 -6974
vt -6991 -6981
vt -2973 -10001.5
vt -6991 -10008.5
vt -6978 -15
vt -10020 -20
vt -6978 -4914.5
vt -10020 -4919.5
vt -6978 -9994.5
vt -10020 -9999.5

vn 0 1 0
vn -0.009093595 0 0.9999586
vn -0.9999998 0 0.000575788
vn 0.9999983 0 -0.001866204
vn -0.001643653 0 0.9999986
vn -0.9999912 0 -0.004210489
vn -0.00130104 0 -0.9999992
vn 0.999999 0 0.00139888
vn 1.818045E-06 -1 -0.0001999177
vn 0.0003362544 -0.9999999 -9.995883E-05
vn 0.0006706907 -0.9999998 0

usemtl ProBuilderDefault
f 8/8/1 1/1/1 7/7/1
f 5/5/1 6/6/1 4/4/1
f 6/6/1 3/3/1 4/4/1
f 6/6/1 2/2/1 3/3/1
f 7/7/1 2/2/1 6/6/1
f 7/7/1 1/1/1 2/2/1
f 8/11/2 10/9/2 9/1/2
f 9/1/2 1/10/2 8/11/2
f 7/15/3 11/13/3 10/12/3
f 10/12/3 8/14/3 7/15/3
f 5/19/4 13/17/4 12/16/4
f 12/16/4 6/18/4 5/19/4
f 4/23/5 14/21/5 13/20/5
f 13/20/5 5/22/5 4/23/5
f 3/27/6 15/25/6 14/24/6
f 14/24/6 4/26/6 3/27/6
f 2/31/7 16/29/7 15/28/7
f 15/28/7 3/30/7 2/31/7
f 6/35/5 12/33/5 11/32/5
f 11/32/5 7/34/5 6/35/5
f 1/10/8 9/1/8 16/36/8
f 16/36/8 2/37/8 1/10/8
f 17/39/10 9/1/9 10/38/10
f 10/38/10 18/40/11 17/39/10
f 19/43/9 11/41/9 12/42/9
f 12/42/9 20/44/9 19/43/9
f 21/47/9 13/45/9 14/46/9
f 14/46/9 22/48/9 21/47/9
f 23/49/9 21/47/9 22/48/9
f 22/48/9 24/50/9 23/49/9

