# ProBuilder 5.0.7
# https://unity3d.com/unity/features/worldbuilding/probuilder
# 12/11/2023 5:09:18 PM

mtllib ./doorTile.mtl
o doorTile

g Cube (1)
v -9.229068 -3.49246E-10 12.26478
v -9.229069 -3.49246E-10 11.65716
v -9.229069 4.854443 11.65716
v -9.229068 5.76061 12.26478
v -9.22907 -3.49246E-10 11.04955
v -9.22907 5.782966 11.04955
v -9.22907 9.708886 11.04955
v -9.229069 9.708886 11.65716
v -9.229068 9.708886 12.26478
v 14.12987 -3.49246E-10 11.04955
v 14.12987 -3.49246E-10 11.65716
v 14.12987 4.854443 11.65716
v 14.12987 5.782966 11.04955
v 14.12987 -3.49246E-10 12.26478
v 14.12987 5.76061 12.26478
v 14.12987 9.708886 12.26478
v 14.12987 9.708886 11.65716
v 14.12987 9.708886 11.04955
v -5.923684 -3.49246E-10 12.27732
v -5.923683 5.76061 12.26478
v -5.923684 9.708886 12.26478
v -5.923685 -3.49246E-10 11.04955
v -5.923685 5.782966 11.04955
v -5.923685 9.708886 11.04955
v -5.923685 9.708886 11.65716
v -5.923685 -3.49246E-10 11.65716
v -0.4437497 -3.49246E-10 12.22682
v -0.4437488 5.76061 12.26478
v -0.44375 9.708886 12.26478
v -0.44375 5.782966 11.04955
v -0.4437502 -3.49246E-10 11.04955
v -0.4437502 9.708886 11.04955
v -0.44375 9.708886 11.65716
v -0.44375 -3.49246E-10 11.65716
v -0.4437497 5.782966 12.21126
v -0.44375 -3.49246E-10 12.21126
v -5.923685 -3.49246E-10 12.22827
v -5.923685 5.782966 12.21126
v -0.4437494 5.782966 12.25585
v -5.923685 5.782966 12.25585

vt 12.26476 -3.49246E-10
vt 11.65715 -3.49246E-10
vt 11.65715 4.854443
vt 12.26476 5.76061
vt 11.04953 -3.49246E-10
vt 11.04953 5.782966
vt 11.04953 9.708886
vt 11.65715 9.708886
vt 12.26476 9.708886
vt -11.04955 -3.49246E-10
vt -11.65716 -3.49246E-10
vt -11.65716 4.854443
vt -11.04955 5.782966
vt -12.26478 -3.49246E-10
vt -12.26478 5.76061
vt -12.26478 9.708886
vt -11.65716 9.708886
vt -11.04955 9.708886
vt -5.907963 0.01618853
vt -9.21336 0.01617757
vt -9.21336 5.776783
vt -5.907978 5.776777
vt -9.21336 9.725056
vt -5.907979 9.72505
vt 5.923685 -3.49246E-10
vt 5.923685 5.782966
vt 9.22907 5.782966
vt 9.22907 -3.49246E-10
vt 5.923685 9.708886
vt 9.22907 9.708886
vt 9.22907 11.04955
vt 5.923685 11.04955
vt 5.923685 11.65716
vt 9.229069 11.65716
vt 5.923684 12.26478
vt 9.229068 12.26478
vt -5.923684 12.27732
vt -5.923685 11.65716
vt -9.229069 11.65716
vt -9.229068 12.26478
vt -5.923685 11.04955
vt -9.22907 11.04955
vt 14.14556 0.01613817
vt -0.4280978 0.01611273
vt -0.4280484 5.776768
vt 14.14556 5.776743
vt -0.4280495 9.72504
vt 14.14556 9.725017
vt -14.12987 5.782966
vt 0.44375 5.782966
vt 0.4437502 -3.49246E-10
vt -14.12987 -3.49246E-10
vt -14.12987 9.708886
vt 0.4437502 9.708886
vt 0.44375 11.65716
vt 0.44375 12.26478
vt -14.12987 11.65716
vt -14.12987 12.26478
vt 0.4437502 11.04955
vt -14.12987 11.04955
vt -0.4437497 12.22682
vt -0.44375 11.65716
vt 14.12987 12.26478
vt 14.12987 11.65716
vt -0.4437502 11.04955
vt 14.12987 11.04955
vt 12.21126 5.782966
vt 12.21126 -2.093105E-08
vt 0.44375 12.21126
vt 5.923685 12.22827
vt -12.22827 -4.887898E-07
vt -12.21126 5.782965
vt -5.923685 12.21126
vt -0.4437497 12.21126
vt 12.25585 5.782966
vt 12.22682 -2.322153E-08
vt 0.4437497 12.22682
vt 5.923684 12.27732
vt -12.27721 -3.39196E-07
vt -12.25573 5.782965
vt -5.923685 12.25585
vt -0.4437494 12.25585

vn -1 0 1.569538E-06
vn 1 0 0
vn -0.001898025 0.001089074 0.9999952
vn -0.00379605 0 0.9999928
vn 0 0.002178148 0.9999976
vn 0 0 1
vn 0 0 -1
vn 0 1 0
vn 0 -1 0
vn -0.001302192 -0.00329438 0.9999875
vn -0.002604383 -0.006588761 0.9999749

usemtl Wall8_1
f 4/4/1 3/3/1 2/2/1 1/1/1
f 3/3/1 6/6/1 5/5/1 2/2/1
f 8/8/1 7/7/1 6/6/1 3/3/1
f 9/9/1 8/8/1 3/3/1 4/4/1
f 11/11/2 10/10/2 13/13/2 12/12/2
f 14/14/2 11/11/2 12/12/2 15/15/2
f 12/12/2 17/17/2 16/16/2 15/15/2
f 13/13/2 18/18/2 17/17/2 12/12/2
f 20/22/5 4/21/3 1/20/4 19/19/3
f 21/24/6 9/23/6 4/21/6 20/22/6
f 5/28/7 6/27/7 23/26/7 22/25/7
f 23/26/7 6/27/7 7/30/7 24/29/7
f 8/34/8 25/33/8 24/32/8 7/31/8
f 9/36/8 21/35/8 25/33/8 8/34/8
f 1/40/9 2/39/9 26/38/9 19/37/9
f 2/39/9 5/42/9 22/41/9 26/38/9
f 15/46/6 28/45/10 27/44/11 14/43/10
f 16/48/6 29/47/6 28/45/6 15/46/6
f 29/47/6 21/24/6 20/22/6 28/45/6
f 31/51/7 30/50/7 13/49/7 10/52/7
f 30/50/7 32/54/7 18/53/7 13/49/7
f 23/26/7 24/29/7 32/54/7 30/50/7
f 29/56/8 33/55/8 25/33/8 21/35/8
f 29/56/8 16/58/8 17/57/8 33/55/8
f 25/33/8 33/55/8 32/59/8 24/32/8
f 17/57/8 18/60/8 32/59/8 33/55/8
f 26/38/9 34/62/9 27/61/9 19/37/9
f 11/64/9 14/63/9 27/61/9 34/62/9
f 26/38/9 22/41/9 31/65/9 34/62/9
f 31/65/9 10/66/9 11/64/9 34/62/9
f 36/68/1 35/67/1 30/6/1 31/5/1
f 37/70/8 36/69/8 31/59/8 22/32/8
f 38/72/2 37/71/2 22/10/2 23/13/2
f 35/74/9 38/73/9 23/41/9 30/65/9
f 27/76/1 39/75/1 35/67/1 36/68/1
f 19/78/8 27/77/8 36/69/8 37/70/8
f 40/80/2 19/79/2 37/71/2 38/72/2
f 39/82/9 40/81/9 38/73/9 35/74/9

