# ProBuilder 5.0.7
# https://unity3d.com/unity/features/worldbuilding/probuilder
# 12/11/2023 4:55:26 PM

mtllib ./floorTile.mtl
o floorTile

g Cube (1)
v 14.12987 -3.49246E-10 12.26478
v -11.97461 0 12.26478
v 14.12987 9.708886 12.26478
v -11.97461 9.708886 12.26478
v -11.97461 -7.450581E-09 11.04955
v -11.97461 9.708886 11.04955
v 14.12987 -3.49246E-10 11.04955
v 14.12987 9.708886 11.04955

vt 14.12987 -3.49246E-10
vt -11.97461 0
vt 14.12987 9.708886
vt -11.97461 9.708886
vt 12.26477 0
vt 11.04954 -7.450581E-09
vt 12.26477 9.708886
vt 11.04954 9.708886
vt 11.97461 -2.178177E-06
vt -14.12987 -2.171076E-06
vt 11.97461 9.708884
vt -14.12987 9.708884
vt -11.04955 -3.49246E-10
vt -12.26478 -3.49246E-10
vt -11.04955 9.708886
vt -12.26478 9.708886
vt -14.12987 12.26478
vt 11.97461 12.26478
vt -14.12987 11.04955
vt 11.97461 11.04955
vt 14.12987 11.04955
vt -11.97461 11.04955
vt 14.12987 12.26478
vt -11.97461 12.26478

vn 0 0 1
vn -1 0 7.847698E-07
vn -7.306596E-08 -1.964539E-07 -1
vn 1 0 0
vn 0 1 0
vn 2.720351E-10 -1 0

usemtl Wall7
f 3/3/1 4/4/1 2/2/1 1/1/1
f 4/7/2 6/8/2 5/6/2 2/5/2
f 6/11/3 8/12/3 7/10/3 5/9/3
f 8/15/4 3/16/4 1/14/4 7/13/4
f 8/19/5 6/20/5 4/18/5 3/17/5
f 1/23/6 2/24/6 5/22/6 7/21/6

