# ProBuilder 5.0.7
# https://unity3d.com/unity/features/worldbuilding/probuilder
# 1/11/2024 6:31:41 PM

mtllib ./validFloor.mtl
o validFloor

g validFloor
v 0 0 0
v -10005.15 0 0
v 0 378.9926 0
v -10005.15 378.9926 0
v -10005.15 0 -9991.086
v -10005.15 378.9926 -9991.086
v 0 0 -9991.086
v 0 378.9926 -9991.086

vt 0 0
vt -10005.15 0
vt 0 378.9926
vt -10005.15 378.9926
vt -9991.086 0
vt -9991.086 378.9926
vt 10005.15 0
vt 10005.15 378.9926
vt 9991.086 0
vt 9991.086 378.9926
vt 0 -9991.086
vt 10005.15 -9991.086
vt -10005.15 -9991.086

vn 0 0 1
vn -1 0 0
vn 0 0 -1
vn 1 0 0
vn 0 1 0
vn 0 -1 0

usemtl ProBuilderDefault
f 3/3/1 4/4/1 2/2/1 1/1/1
f 4/3/2 6/6/2 5/5/2 2/1/2
f 6/8/3 8/3/3 7/1/3 5/7/3
f 8/10/4 3/3/4 1/1/4 7/9/4
f 8/11/5 6/12/5 4/7/5 3/1/5
f 1/1/6 2/2/6 5/13/6 7/11/6

